<?xml version="1.0" encoding="UTF-8" standalone="no"?>
<!-- Created with Inkscape (http://www.inkscape.org/) -->

<svg
   xmlns:dc="http://purl.org/dc/elements/1.1/"
   xmlns:cc="http://creativecommons.org/ns#"
   xmlns:rdf="http://www.w3.org/1999/02/22-rdf-syntax-ns#"
   xmlns:svg="http://www.w3.org/2000/svg"
   xmlns="http://www.w3.org/2000/svg"
   xmlns:sodipodi="http://sodipodi.sourceforge.net/DTD/sodipodi-0.dtd"
   xmlns:inkscape="http://www.inkscape.org/namespaces/inkscape"
   id="svg3336"
   version="1.1"
   inkscape:version="0.91 r13725"
   width="700"
   height="232.5"
   viewBox="0 0 700 232.5"
   sodipodi:docname="burger.svg">
  <metadata
     id="metadata3342">
    <rdf:RDF>
      <cc:Work
         rdf:about="">
        <dc:format>image/svg+xml</dc:format>
        <dc:type
           rdf:resource="http://purl.org/dc/dcmitype/StillImage" />
        <dc:title />
      </cc:Work>
    </rdf:RDF>
  </metadata>
  <defs
     id="defs3340" />
  <sodipodi:namedview
     pagecolor="#ffffff"
     bordercolor="#666666"
     borderopacity="1"
     objecttolerance="10"
     gridtolerance="10"
     guidetolerance="10"
     inkscape:pageopacity="0"
     inkscape:pageshadow="2"
     inkscape:window-width="1600"
     inkscape:window-height="847"
     id="namedview3338"
     showgrid="false"
     inkscape:zoom="8"
     inkscape:cx="175.81876"
     inkscape:cy="129.97036"
     inkscape:window-x="-8"
     inkscape:window-y="-8"
     inkscape:window-maximized="1"
     inkscape:current-layer="layer3" />
  <g
     inkscape:groupmode="layer"
     id="layer3"
     inkscape:label="Merged Frø"
     sodipodi:insensitive="true">
    <path
       style="display:inline;fill:#5b3c30;fill-opacity:1;fill-rule:evenodd;stroke:none;stroke-width:1px;stroke-linecap:butt;stroke-linejoin:miter;stroke-opacity:1"
       d="m 215.90167,107.50945 1.09971,1.31965 0.50586,1.38564 0.21994,1.42962 -0.088,1.42962 -0.43989,1.78153 -1.07771,1.82552 -0.35191,0.43988 -0.3739,0.15396 -79.22308,-0.088 -0.59384,-0.24193 -0.90176,-1.23168 -0.68182,-2.37537 -0.41789,-3.10118 15.46191,-3.783 z"
       id="path5733-6"
       inkscape:connector-curvature="0" />
    <path
       style="color:#000000;font-style:normal;font-variant:normal;font-weight:normal;font-stretch:normal;font-size:medium;line-height:normal;font-family:sans-serif;text-indent:0;text-align:start;text-decoration:none;text-decoration-line:none;text-decoration-style:solid;text-decoration-color:#000000;letter-spacing:normal;word-spacing:normal;text-transform:none;direction:ltr;block-progression:tb;writing-mode:lr-tb;baseline-shift:baseline;text-anchor:start;white-space:normal;clip-rule:nonzero;display:inline;overflow:visible;visibility:visible;opacity:1;isolation:auto;mix-blend-mode:normal;color-interpolation:sRGB;color-interpolation-filters:linearRGB;solid-color:#000000;solid-opacity:1;fill:#471100;fill-opacity:1;fill-rule:evenodd;stroke:none;stroke-width:1px;stroke-linecap:butt;stroke-linejoin:miter;stroke-miterlimit:4;stroke-dasharray:none;stroke-dashoffset:0;stroke-opacity:1;color-rendering:auto;image-rendering:auto;shape-rendering:auto;text-rendering:auto;enable-background:accumulate"
       d="m 179.65188,103.99971 c -18.46738,-0.47873 -34.19261,1.42403 -45.99227,6.75252 l -0.11772,0.0527 0.009,0.12855 c 0.16048,2.2534 0.36303,4.56461 2.2742,6.52215 l 0.0549,0.0556 79.90655,-0.13072 0.0556,-0.0621 c 1.75745,-1.98383 2.23583,-4.25062 2.01493,-6.14227 -0.2209,-1.89164 -1.11773,-3.42288 -2.20342,-3.95185 l -0.026,-0.013 -0.0296,-0.004 c -12.79879,-1.77632 -24.86612,-2.92075 -35.94654,-3.20799 z m -0.009,0.3741 c 11.04984,0.28485 23.09144,1.42331 35.86493,3.19498 0.89192,0.44588 1.77376,1.86308 1.98243,3.64998 0.20765,1.77818 -0.23732,3.90268 -1.8806,5.792 l -79.56133,0.13072 c -1.73546,-1.81434 -1.95876,-3.92146 -2.11603,-6.10183 11.7046,-5.25132 27.33556,-7.13956 45.71061,-6.66585 z"
       id="path5678-9"
       inkscape:connector-curvature="0" />
    <path
       style="display:inline;fill:#ebc146;fill-opacity:1;fill-rule:evenodd;stroke:none;stroke-width:2.10148573px;stroke-linecap:butt;stroke-linejoin:miter;stroke-opacity:1"
       d="m 142.45306,108.69614 c 1.2063,0.18447 0.18397,4.1426 10.44583,0.4622 4.07788,-0.16455 5.50938,2.3173 7.21039,4.52961 1.98068,-0.76532 2.37302,-3.23652 6.10111,-2.77323 0.22663,-0.95592 1.84628,-3.41001 5.08425,-2.0337 2.39219,0.18269 1.90962,-3.32018 6.19355,-2.31102 7.41413,0.42196 9.14636,3.68487 13.49638,5.6389 2.96153,-0.30298 1.07055,-2.34735 6.5633,1.10929 1.97674,0.006 0.72833,-3.87206 2.68079,-4.34473 1.00578,-0.90706 2.98413,1.05929 4.43717,1.94126 1.29062,-0.49854 1.2391,-1.63169 1.75638,-2.4959 -8.67939,-3.33602 -22.7823,-9.282908 -63.96915,0.27732 z"
       id="path4183-2"
       inkscape:connector-curvature="0"
       sodipodi:nodetypes="cccccccccccc" />
    <path
       style="display:inline;fill:#889c0f;fill-opacity:1;fill-rule:evenodd;stroke:none;stroke-width:1px;stroke-linecap:butt;stroke-linejoin:miter;stroke-opacity:1"
       d="m 137.33841,101.19712 -1.03372,1.05572 -2.02347,2.11144 -1.47361,1.97948 -1.20968,2.41936 -0.52786,2.50734 -0.066,1.09971 4.57479,-2.13344 3.95895,-1.40763 2.11145,-0.15396 2.79326,0.35191 3.45308,-0.15396 3.73902,-0.85777 4.97068,-0.83578 5.52055,-0.57185 7.30207,-0.19795 6.09239,0.21994 5.05866,0.26393 7.41205,0.48387 7.9399,0.52786 5.41057,0.26394 8.95164,0.39589 1.34164,-0.13196 1.42962,-0.65983 1.34165,-0.30792 1.58358,-0.066 2.00147,0.48387 2.46335,0.3739 0.26393,-0.79179 -0.46187,-1.4956 -1.47362,-1.82552 -2.13343,-1.86951 -1.20968,-1.09971 z"
       id="path5731-5"
       inkscape:connector-curvature="0" />
    <path
       style="color:#000000;font-style:normal;font-variant:normal;font-weight:normal;font-stretch:normal;font-size:medium;line-height:normal;font-family:sans-serif;text-indent:0;text-align:start;text-decoration:none;text-decoration-line:none;text-decoration-style:solid;text-decoration-color:#000000;letter-spacing:normal;word-spacing:normal;text-transform:none;direction:ltr;block-progression:tb;writing-mode:lr-tb;baseline-shift:baseline;text-anchor:start;white-space:normal;clip-rule:nonzero;display:inline;overflow:visible;visibility:visible;opacity:1;isolation:auto;mix-blend-mode:normal;color-interpolation:sRGB;color-interpolation-filters:linearRGB;solid-color:#000000;solid-opacity:1;fill:#006100;fill-opacity:1;fill-rule:evenodd;stroke:none;stroke-width:0.21014859;stroke-linecap:butt;stroke-linejoin:miter;stroke-miterlimit:4;stroke-dasharray:none;stroke-dashoffset:0;stroke-opacity:1;color-rendering:auto;image-rendering:auto;shape-rendering:auto;text-rendering:auto;enable-background:accumulate"
       d="m 137.40925,101.04015 -0.0513,0.0426 c -3.80645,3.13935 -6.44494,6.7464 -6.5272,11.28502 l -0.005,0.29899 0.2701,-0.12856 c 6.334,-3.02974 8.53346,-3.66974 10.15118,-3.68175 1.61771,-0.012 2.76722,0.61872 6.88902,0.15167 l 0.0115,-0.001 0.0115,-0.002 c 10.7426,-2.64448 20.7162,-2.72572 30.46723,-2.02215 l 0.002,0 0.002,7e-4 c 10.97707,0.55486 22.57074,1.71839 32.9422,1.64661 l 0.0484,-7.1e-4 0.0419,-0.0238 c 1.90679,-1.08983 3.34556,-1.11597 4.7116,-0.89047 1.36603,0.22551 2.66049,0.72504 4.1974,0.66154 l 0.14371,-0.006 0.0296,-0.14083 c 0.28492,-1.35284 -0.37242,-2.60191 -1.41406,-3.76697 -1.04163,-1.16506 -2.48015,-2.27239 -3.84352,-3.38132 l -0.0505,-0.0412 -78.02812,0 z m 0.13938,0.36976 77.75658,0 c 1.35287,1.09904 2.75668,2.18757 3.75035,3.29899 0.9595,1.07319 1.50339,2.14592 1.33534,3.28021 -1.37545,0.0169 -2.599,-0.4151 -3.95618,-0.63914 -1.40022,-0.23115 -2.95215,-0.18828 -4.90082,0.90924 -10.33297,0.0687 -21.90692,-1.091 -32.88443,-1.64588 l 0.004,7e-4 c -9.76695,-0.70468 -19.78112,-0.62546 -30.56835,2.02797 -4.06796,0.45957 -5.13006,-0.16797 -6.84063,-0.15528 -1.68137,0.0125 -3.92871,0.68648 -10.01685,3.58426 0.18997,-4.23558 2.67265,-7.63991 6.32138,-10.66105 z"
       id="path4171-1"
       inkscape:connector-curvature="0" />
    <path
       style="display:inline;fill:#bb4a26;fill-opacity:1;fill-rule:evenodd;stroke:#701a26;stroke-width:0.36976385px;stroke-linecap:butt;stroke-linejoin:miter;stroke-opacity:1"
       d="m 135.98219,96.586372 c -2.00733,-0.51417 -3.62898,3.843598 -0.0924,4.622048 l 79.77655,0 c 1.85038,-0.18488 3.47414,-3.974958 -0.0924,-4.437158 z"
       id="path4181-3"
       inkscape:connector-curvature="0"
       sodipodi:nodetypes="ccccc" />
    <path
       sodipodi:nodetypes="ccccc"
       inkscape:connector-curvature="0"
       id="path5675-3"
       d="m 136.24366,117.24192 c -2.00734,-0.51418 -3.62899,3.84359 -0.0924,4.62204 l 79.77654,0 c 1.85039,-0.18488 3.47415,-3.97496 -0.0924,-4.43716 z"
       style="display:inline;fill:#bb4a26;fill-opacity:1;fill-rule:evenodd;stroke:#701a26;stroke-width:0.36976385px;stroke-linecap:butt;stroke-linejoin:miter;stroke-opacity:1" />
    <path
       style="display:inline;fill:#e0942e;fill-opacity:1;fill-rule:evenodd;stroke:#9b7429;stroke-width:0.36976385px;stroke-linecap:butt;stroke-linejoin:miter;stroke-opacity:1"
       d="m 135.95781,121.68069 c 1.71644,12.68108 20.51302,18.1091 38.82719,17.12579 17.41553,-0.0312 38.61548,-2.74706 40.91888,-17.12579 z"
       id="path5683-7"
       inkscape:connector-curvature="0"
       sodipodi:nodetypes="cccc" />
    <path
       style="display:inline;fill:#e0942e;fill-opacity:1;fill-rule:evenodd;stroke:#9b7429;stroke-width:0.36976385px;stroke-linecap:butt;stroke-linejoin:miter;stroke-opacity:1"
       d="m 136.07463,97.030722 79.49923,-0.18488 c 1.10373,-4.972327 -3.3811,-31.43853 -38.64032,-30.690402 -22.60496,0.03305 -39.86492,8.880836 -40.85891,30.875282 z"
       id="path4179-8"
       inkscape:connector-curvature="0"
       sodipodi:nodetypes="cccc" />
    <path
       style="display:inline;fill:#ffeaa3;fill-opacity:1;fill-rule:evenodd;stroke:none;stroke-width:0.1;stroke-linecap:butt;stroke-linejoin:miter;stroke-miterlimit:4;stroke-dasharray:none;stroke-opacity:1"
       d="m 185.89649,70.891254 c 0.15992,-0.888223 -0.50789,-1.217008 -1.01278,-1.280232 -0.78474,0.487139 -0.89412,1.199644 -1.04991,2.010058 0.7514,-0.06378 1.49845,-0.06946 2.06269,-0.729826 z"
       id="path4145-3-3"
       inkscape:connector-curvature="0"
       sodipodi:nodetypes="cccc" />
    <path
       style="display:inline;fill:#ffeaa3;fill-opacity:1;fill-rule:evenodd;stroke:none;stroke-width:0.1;stroke-linecap:butt;stroke-linejoin:miter;stroke-miterlimit:4;stroke-dasharray:none;stroke-opacity:1"
       d="m 186.69538,75.785429 c 0.3456,1.405763 -0.0907,2.318541 -0.46673,2.697277 -0.73046,-0.394747 -0.99302,-1.532608 -1.31601,-2.809896 0.59902,-0.298433 1.18019,-0.69214 1.78274,0.112624 z"
       id="path4145-3-2"
       inkscape:connector-curvature="0"
       sodipodi:nodetypes="cccc" />
    <path
       style="display:inline;fill:#ffeaa3;fill-opacity:1;fill-rule:evenodd;stroke:none;stroke-width:0.1;stroke-linecap:butt;stroke-linejoin:miter;stroke-miterlimit:4;stroke-dasharray:none;stroke-opacity:1"
       d="m 191.67731,72.073945 c 0.6612,1.287794 0.44773,2.276707 0.16943,2.732109 -0.80193,-0.215195 -1.32041,-1.26154 -1.92992,-2.429563 0.51381,-0.428823 0.98822,-0.946217 1.76048,-0.302542 z"
       id="path4145-3-2-2"
       inkscape:connector-curvature="0"
       sodipodi:nodetypes="cccc" />
    <path
       style="display:inline;fill:#ffeaa3;fill-opacity:1;fill-rule:evenodd;stroke:none;stroke-width:0.1;stroke-linecap:butt;stroke-linejoin:miter;stroke-miterlimit:4;stroke-dasharray:none;stroke-opacity:1"
       d="m 195.58433,77.665331 c 0.94066,-1.100348 1.93663,-1.278014 2.46357,-1.193302 0.10513,0.823616 -0.66628,1.70031 -1.51573,2.707387 -0.5917,-0.312702 -1.2504,-0.555356 -0.94784,-1.514088 z"
       id="path4145-3-2-8"
       inkscape:connector-curvature="0"
       sodipodi:nodetypes="cccc"
       inkscape:transform-center-x="0.056360329"
       inkscape:transform-center-y="-0.12181207" />
    <path
       style="display:inline;fill:#ffeaa3;fill-opacity:1;fill-rule:evenodd;stroke:none;stroke-width:0.1;stroke-linecap:butt;stroke-linejoin:miter;stroke-miterlimit:4;stroke-dasharray:none;stroke-opacity:1"
       d="m 204.84356,76.484111 c 0.54932,1.128924 -0.14416,1.861947 -0.74184,2.166098 -1.16103,-0.317009 -1.57835,-1.230789 -2.09173,-2.256538 0.95211,-0.239663 1.87585,-0.555837 2.83357,0.09044 z"
       id="path4145-3-2-3"
       inkscape:connector-curvature="0"
       sodipodi:nodetypes="cccc" />
    <path
       style="fill:#ffeaa3;fill-opacity:1;fill-rule:evenodd;stroke:none;stroke-width:0.1;stroke-linecap:butt;stroke-linejoin:miter;stroke-miterlimit:4;stroke-dasharray:none;stroke-opacity:1"
       d="m 145.24211,80.964139 c 0.68616,0.916448 1.45825,0.483285 1.875,0 0.1204,-1.243184 -0.44348,-1.958247 -1.0625,-2.804917 -0.47802,0.851931 -1.00528,1.650406 -0.8125,2.804917 z"
       id="path4145"
       inkscape:connector-curvature="0"
       sodipodi:nodetypes="cccc" />
    <path
       style="fill:#ffeaa3;fill-opacity:1;fill-rule:evenodd;stroke:none;stroke-width:0.1;stroke-linecap:butt;stroke-linejoin:miter;stroke-miterlimit:4;stroke-dasharray:none;stroke-opacity:1"
       d="m 150.02574,75.099175 c 0.15034,0.889896 0.89004,0.973084 1.38651,0.861581 0.57338,-0.724116 0.435,-1.431562 0.30712,-2.246846 -0.68539,0.314488 -1.38638,0.572833 -1.69363,1.385265 z"
       id="path4145-3"
       inkscape:connector-curvature="0"
       sodipodi:nodetypes="cccc" />
    <path
       style="fill:#ffeaa3;fill-opacity:1;fill-rule:evenodd;stroke:none;stroke-width:0.1;stroke-linecap:butt;stroke-linejoin:miter;stroke-miterlimit:4;stroke-dasharray:none;stroke-opacity:1"
       d="m 154.92943,81.598751 c 0.89401,-0.12353 0.99939,-0.860396 0.90286,-1.359992 -0.70656,-0.594882 -1.41784,-0.477825 -2.2366,-0.374503 0.29375,0.694531 0.53091,1.402968 1.33374,1.734495 z"
       id="path4145-3-8"
       inkscape:connector-curvature="0"
       sodipodi:nodetypes="cccc" />
    <path
       style="fill:#ffeaa3;fill-opacity:1;fill-rule:evenodd;stroke:none;stroke-width:0.1;stroke-linecap:butt;stroke-linejoin:miter;stroke-miterlimit:4;stroke-dasharray:none;stroke-opacity:1"
       d="m 156.93576,73.707299 c 0.24394,0.987229 1.44415,1.079516 2.24971,0.955817 0.93035,-0.803316 0.70582,-1.58814 0.49832,-2.492597 -1.11209,0.348886 -2.2495,0.635487 -2.74803,1.53678 z"
       id="path4145-3-7"
       inkscape:connector-curvature="0"
       sodipodi:nodetypes="cccc" />
    <path
       style="fill:#ffeaa3;fill-opacity:1;fill-rule:evenodd;stroke:none;stroke-width:0.1;stroke-linecap:butt;stroke-linejoin:miter;stroke-miterlimit:4;stroke-dasharray:none;stroke-opacity:1"
       d="m 164.29403,76.753057 c -1.64747,-0.06858 -2.12167,0.629258 -2.14263,1.137966 1.03356,0.731009 2.35159,0.767224 3.85658,0.839622 -0.25634,-0.740985 -0.40604,-1.483577 -1.71395,-1.977588 z"
       id="path4145-3-83"
       inkscape:connector-curvature="0"
       sodipodi:nodetypes="cccc" />
    <path
       style="fill:#ffeaa3;fill-opacity:1;fill-rule:evenodd;stroke:none;stroke-width:0.1;stroke-linecap:butt;stroke-linejoin:miter;stroke-miterlimit:4;stroke-dasharray:none;stroke-opacity:1"
       d="m 167.38026,71.076534 c 0.78237,-0.449905 0.60361,-1.172484 0.3267,-1.599375 -0.87813,-0.286358 -1.49355,0.089 -2.21374,0.491938 0.53285,0.533599 1.01847,1.101317 1.88704,1.107437 z"
       id="path4145-3-77"
       inkscape:connector-curvature="0"
       sodipodi:nodetypes="cccc" />
    <path
       style="fill:#ffeaa3;fill-opacity:1;fill-rule:evenodd;stroke:none;stroke-width:0.1;stroke-linecap:butt;stroke-linejoin:miter;stroke-miterlimit:4;stroke-dasharray:none;stroke-opacity:1"
       d="m 170.43576,73.930784 c 0.15034,0.889895 0.89004,0.973083 1.38651,0.86158 0.57338,-0.724115 0.435,-1.431561 0.30712,-2.246845 -0.68539,0.314488 -1.38638,0.572833 -1.69363,1.385265 z"
       id="path4145-3-6"
       inkscape:connector-curvature="0"
       sodipodi:nodetypes="cccc" />
    <path
       style="fill:#ffeaa3;fill-opacity:1;fill-rule:evenodd;stroke:none;stroke-width:0.1;stroke-linecap:butt;stroke-linejoin:miter;stroke-miterlimit:4;stroke-dasharray:none;stroke-opacity:1"
       d="m 174.81076,70.309572 c 0.21274,1.133229 1.25945,1.239164 1.96198,1.097172 0.81136,-0.922118 0.61554,-1.823009 0.43459,-2.861225 -0.96986,0.400482 -1.9618,0.729469 -2.39657,1.764053 z"
       id="path4145-3-4"
       inkscape:connector-curvature="0"
       sodipodi:nodetypes="cccc" />
    <path
       style="fill:#ffeaa3;fill-opacity:1;fill-rule:evenodd;stroke:none;stroke-width:0.1;stroke-linecap:butt;stroke-linejoin:miter;stroke-miterlimit:4;stroke-dasharray:none;stroke-opacity:1"
       d="m 179.38427,77.386424 c 0.64582,-1.229149 -0.01,-1.849525 -0.59874,-2.054471 -1.21172,0.515544 -1.70653,1.505825 -2.3079,2.62506 0.95666,0.08006 1.87861,0.241931 2.90664,-0.570589 z"
       id="path4145-3-9"
       inkscape:connector-curvature="0"
       sodipodi:nodetypes="cccc" />
  </g>
</svg>
