<?xml version="1.0" encoding="UTF-8" standalone="no"?>
<!-- Created with Inkscape (http://www.inkscape.org/) -->

<svg
   xmlns:dc="http://purl.org/dc/elements/1.1/"
   xmlns:cc="http://creativecommons.org/ns#"
   xmlns:rdf="http://www.w3.org/1999/02/22-rdf-syntax-ns#"
   xmlns:svg="http://www.w3.org/2000/svg"
   xmlns="http://www.w3.org/2000/svg"
   xmlns:sodipodi="http://sodipodi.sourceforge.net/DTD/sodipodi-0.dtd"
   xmlns:inkscape="http://www.inkscape.org/namespaces/inkscape"
   width="744.09448819"
   height="1052.3622047"
   id="svg3068"
   version="1.1"
   inkscape:version="0.48.5 r10040"
   sodipodi:docname="hot-air-balloon.svg"
   enable-background="new">
  <defs
     id="defs3070" />
  <sodipodi:namedview
     id="base"
     pagecolor="#ffffff"
     bordercolor="#666666"
     borderopacity="1.0"
     inkscape:pageopacity="0.0"
     inkscape:pageshadow="2"
     inkscape:zoom="0.98994949"
     inkscape:cx="82.584818"
     inkscape:cy="760.00688"
     inkscape:document-units="px"
     inkscape:current-layer="layer3"
     showgrid="false"
     inkscape:window-width="1920"
     inkscape:window-height="1017"
     inkscape:window-x="-4"
     inkscape:window-y="-4"
     inkscape:window-maximized="1" />
  <metadata
     id="metadata3073">
    <rdf:RDF>
      <cc:Work
         rdf:about="">
        <dc:format>image/svg+xml</dc:format>
        <dc:type
           rdf:resource="http://purl.org/dc/dcmitype/StillImage" />
        <dc:title></dc:title>
      </cc:Work>
    </rdf:RDF>
  </metadata>
  <g
     inkscape:label="Layer 1"
     inkscape:groupmode="layer"
     id="layer1"
     style="opacity:0;display:none" />
  <g
     inkscape:groupmode="layer"
     id="layer3"
     inkscape:label="ballon"
     style="opacity:1;">
    <g
       id="g3421"
       transform="matrix(0.54875016,0,0,0.54875016,282.79071,11.696055)"
       inkscape:export-filename="C:\Users\Hans\Desktop\balloon.png"
       inkscape:export-xdpi="90"
       inkscape:export-ydpi="90">
      <path
         inkscape:connector-curvature="0"
         id="path2995"
         d="m 71.702716,42.05208 -47.591528,-4.611455 -57.789737,19.982959 -47.591544,6.148595 -127.477357,64.560311 -67.98791,59.94886 -47.59155,92.22903 -22.09607,104.52623 6.79879,84.54326 42.49246,110.67483 67.98792,107.60053 113.87977,129.12063 130.876737,124.50919 47.591544,53.80025 5.099089,16.9087 5.099104,10.76 37.393336,104.5262 -27.195159,-104.5262 49.291249,10.7601 59.48943,-4.6115 45.89185,-4.6114 -40.79276,107.6005 -83.28521,-3.0743 0,69.1717 27.19518,9.223 44.19214,0 18.69668,-10.7601 -5.09909,-64.5603 49.29125,-110.6749 1.69969,-15.3714 L 525.52209,726.08399 625.80428,593.88904 673.39583,472.45418 688.69309,357.1679 622.40488,212.67577 539.11967,120.44674 394.64535,57.423584 355.5523,55.886427 304.56135,37.440625 255.27012,43.58922 217.87675,31.29203 182.18309,32.829171 170.28522,46.663535 146.48944,34.366328 107.39638,32.829171 z"
         style="fill:none;stroke:#000000;stroke-width:1.33998084px;stroke-linecap:butt;stroke-linejoin:miter;stroke-opacity:1" />
      <path
         inkscape:connector-curvature="0"
         id="path2997"
         d="m 220.76624,1076.2297 c 0,-0.714 4.31688,-12.6041 9.59306,-26.4226 5.27617,-13.8185 9.14238,-25.5321 8.59156,-26.0303 -0.55083,-0.4981 -8.88325,-0.074 -18.51648,0.9417 -50.34222,13.5428 -87.04347,15.1997 -137.163661,-2.7694 -0.781308,0.2736 1.503001,11.565 5.076238,25.0919 3.573269,13.5269 6.463144,25.632 6.421968,26.9001 -0.07401,2.278 -20.827148,-51.8182 -26.940459,-70.224 C -66.808078,809.86479 -391.16939,641.23744 -333.9822,333.80321 -311.00243,184.05412 -200.82611,86.822825 -56.496458,61.749084 -36.054663,59.278196 -36.49635,39.094499 -4.5887008,48.992143 15.511907,24.736947 35.992874,28.685019 72.042676,43.449867 100.61147,20.628448 134.18642,23.068004 158.16547,42.188944 l 13.03582,6.551569 c 25.41555,-31.006663 55.0034,-13.077322 84.40876,-3.674529 l 24.34649,-3.027846 c 23.23561,-5.161451 29.18181,-1.326933 50.99095,6.344793 43.67228,3.989444 87.7625,-9.921694 135.46234,41.906251 C 583.55066,121.44751 652.46204,222.40093 686.94396,356.86047 685.08522,651.34905 392.6621,831.14003 248.81126,1004.8611 l -1.01437,8.0242 c -0.57852,4.5762 -6.31609,19.9131 -13.35285,35.6928 -12.04927,27.0202 -13.6778,30.3125 -13.6778,27.6516 z"
         style="fill:#ff0000"
         sodipodi:nodetypes="sssccsscccccccccccccsss" />
      <path
         inkscape:connector-curvature="0"
         id="path2999"
         d="m 128.55762,1201.2986 -13.17265,-4.6452 0,-33.08 0,-33.08 37.81829,1.1268 c 20.80004,0.6198 39.39919,1.6646 41.3314,2.3219 3.27817,1.115 3.65951,3.2157 5.70221,31.4094 1.20401,16.618 1.91772,30.4349 1.58599,30.7043 -0.33172,0.2693 -4.51206,2.6476 -9.28963,5.285 -8.52711,4.7073 -9.07277,4.7935 -29.7447,4.6991 -19.25526,-0.088 -22.18608,-0.4938 -34.23091,-4.7413 z"
         style="fill:#550000" />
      <path
         sodipodi:nodetypes="ccc"
         inkscape:connector-curvature="0"
         id="path3181"
         d="M -45.524817,56.824676 C -388.36368,297.59031 -244.08347,587.85224 -163.29307,682.65013 -60.687301,807.77488 59.384111,883.30153 99.525759,1025.821"
         style="fill:none;stroke:#000000;stroke-width:1.64857173px;stroke-linecap:butt;stroke-linejoin:miter;stroke-opacity:1" />
      <path
         sodipodi:nodetypes="ccc"
         inkscape:connector-curvature="0"
         id="path3183"
         d="M 466.81913,89.746014 C 553.19694,160.81979 634.11921,361.52263 592.51507,492.37717 517.16138,680.471 279.53363,897.12341 239.91343,1019.0255"
         style="fill:none;stroke:#000000;stroke-width:1.64857173px;stroke-linecap:butt;stroke-linejoin:miter;stroke-opacity:1" />
      <path
         sodipodi:nodetypes="ccc"
         inkscape:connector-curvature="0"
         id="path3185"
         d="m 169.71961,43.876639 c 53.88987,359.945611 9.27128,658.380151 4.89723,981.944361 l -1.63241,-8.4944"
         style="fill:none;stroke:#000000;stroke-width:1.64857173px;stroke-linecap:butt;stroke-linejoin:miter;stroke-opacity:1" />
      <path
         sodipodi:nodetypes="cc"
         inkscape:connector-curvature="0"
         id="path3187"
         d="m 66.877461,42.17776 c -77.025085,322.89543 -19.857899,649.466 66.929009,976.84774"
         style="fill:none;stroke:#000000;stroke-width:1.64857173px;stroke-linecap:butt;stroke-linejoin:miter;stroke-opacity:1" />
      <path
         sodipodi:nodetypes="cc"
         inkscape:connector-curvature="0"
         id="path3189"
         d="m 257.87,42.17776 c 252.24317,377.20811 9.06175,657.74275 -53.86969,973.45004"
         style="fill:none;stroke:#000000;stroke-width:1.64857173px;stroke-linecap:butt;stroke-linejoin:miter;stroke-opacity:1" />
      <path
         sodipodi:nodetypes="cc"
         inkscape:connector-curvature="0"
         id="path3191"
         d="M 344.38801,48.973223 C 638.11424,404.39228 396.74825,704.62561 226.85413,1012.2301"
         style="fill:none;stroke:#000000;stroke-width:1.64857173px;stroke-linecap:butt;stroke-linejoin:miter;stroke-opacity:1" />
      <path
         sodipodi:nodetypes="cc"
         inkscape:connector-curvature="0"
         id="path3193"
         d="M -2.6941267,44.289742 C -288.53728,407.78511 6.0309792,724.57201 114.21749,1025.821"
         style="fill:none;stroke:#000000;stroke-width:1.64857173px;stroke-linecap:butt;stroke-linejoin:miter;stroke-opacity:1" />
      <path
         inkscape:connector-curvature="0"
         id="path3373"
         d="m 113.13709,1025.0881 c 2.17089,4.3417 2.0203,2.5347 2.0203,5.0507"
         style="fill:none;stroke:#000000;stroke-width:1px;stroke-linecap:butt;stroke-linejoin:miter;stroke-opacity:1" />
      <path
         inkscape:connector-curvature="0"
         id="path3379"
         d="m 133.34014,1019.0271 3.03045,15.1523"
         style="fill:none;stroke:#000000;stroke-width:1px;stroke-linecap:butt;stroke-linejoin:miter;stroke-opacity:1" />
      <path
         inkscape:connector-curvature="0"
         id="path3381"
         d="m 173.74624,1026.0982 1.01015,6.0609"
         style="fill:none;stroke:#000000;stroke-width:1px;stroke-linecap:butt;stroke-linejoin:miter;stroke-opacity:1" />
      <path
         inkscape:connector-curvature="0"
         id="path3383"
         d="m 204.05081,1014.9865 -1.01015,14.1422"
         style="fill:none;stroke:#000000;stroke-width:1px;stroke-linecap:butt;stroke-linejoin:miter;stroke-opacity:1" />
      <path
         inkscape:connector-curvature="0"
         id="path3385"
         d="m 225.26402,1011.9561 -1.01015,13.132"
         style="fill:none;stroke:#000000;stroke-width:1px;stroke-linecap:butt;stroke-linejoin:miter;stroke-opacity:1" />
      <path
         inkscape:connector-curvature="0"
         id="path3389"
         d="m 105.27232,1028.3343 c -3.97339,-0.9616 -4.13126,-1.1658 -5.957335,-7.7074 C 90.874716,990.39132 71.644775,950.57459 49.966437,918.44785 26.368879,883.47688 2.9737764,856.57943 -58.836539,793.3566 -145.50223,704.7104 -173.86825,671.58963 -199.08646,629.59774 -223.404,589.1056 -241.81718,543.07913 -251.6432,498.22439 c -17.70375,-80.81572 -7.82243,-164.6246 27.78009,-235.61808 l 4.43259,-8.83883 55.65633,0 c 46.46038,0 55.56938,0.22657 55.13012,1.37127 -2.79159,7.27477 -9.72571,42.53091 -12.24683,62.26834 -6.62548,51.86975 -3.51455,113.97112 8.56983,171.07396 8.26493,39.05456 18.969447,75.26034 34.837257,117.82967 19.772675,53.04508 39.396848,96.5362 86.8305711,192.43406 61.2683989,123.86774 81.0683279,166.90125 98.5325619,214.15232 2.6695,7.2226 5.16476,13.9275 5.54501,14.8998 0.79783,2.04 -1.35622,2.182 -8.15201,0.5374 z"
         style="fill:#ffffff" />
      <path
         inkscape:connector-curvature="0"
         id="path3391"
         d="m 139.46453,1033.9102 c -1.76293,-0.3424 -2.44382,-1.5361 -3.34075,-5.8566 -0.61959,-2.9845 -1.17682,-6.4793 -1.23829,-7.7661 -0.0615,-1.2868 -2.33754,-10.9764 -5.05792,-21.53252 C 70.74019,769.47438 43.710731,612.75105 33.921077,442.666 31.424105,399.28373 32.603967,278.41332 35.72801,257.55555 l 0.567371,-3.78807 76.620909,0 76.6209,0 0.52335,4.29315 c 0.83358,6.83817 2.52059,46.48203 3.77202,88.64088 0.7174,24.16815 0.92552,63.93862 0.54973,105.05587 -0.78221,85.58941 -2.3485,131.48491 -9.27342,271.73103 -6.7248,136.19303 -9.38165,199.8815 -11.17804,267.95373 -0.36303,13.75666 -1.08186,25.27276 -1.59741,25.59136 -0.51554,0.3186 -0.7075,1.3366 -0.42657,2.2621 0.28093,0.9255 0.78619,4.1759 1.1228,7.2232 0.33662,3.0472 1.06403,5.8198 1.61647,6.1612 2.34912,1.4519 -28.48898,2.5301 -35.18159,1.2302 l 0,0 z"
         style="fill:#ffffff" />
      <path
         inkscape:connector-curvature="0"
         id="path3393"
         d="m 204.45834,1023.1347 c 0.71799,-6.9945 5.55232,-29.51864 11.08639,-51.65384 13.04832,-52.19076 29.72416,-103.3781 70.09574,-215.16249 61.04754,-169.03381 79.89716,-245.59985 84.98881,-345.21963 2.2816,-44.64023 -2.25718,-99.06426 -11.85727,-142.17897 -1.42265,-6.38922 -2.81062,-12.41225 -3.08439,-13.38453 -0.46943,-1.66714 2.46317,-1.76776 51.52149,-1.76776 l 52.01925,0 1.69424,5.80837 c 9.9926,34.25785 15.76221,65.28863 18.735,100.76272 1.49344,17.82106 0.62666,66.35252 -1.53353,85.86297 -9.48428,85.66054 -36.57057,168.44552 -90.22929,275.77164 -22.52904,45.06171 -44.45123,84.67401 -100.90627,182.33254 -19.43111,33.61282 -41.14879,71.45566 -48.26151,84.0952 -7.11273,12.63958 -13.33466,22.98098 -13.82653,22.98098 -0.49186,0 -0.8943,2.2357 -0.8943,4.9681 0,6.4054 -0.72721,8.1599 -3.39107,8.1812 -1.19062,0.01 -5.43276,0.8662 -9.42698,1.9038 l -7.26221,1.8864 0.53243,-5.1867 0,0 z"
         style="fill:#ffffff" />
      <path
         inkscape:connector-curvature="0"
         id="path3397"
         d="m 239.40615,1018.017 -4.04061,7.0711"
         style="fill:none;stroke:#000000;stroke-width:1px;stroke-linecap:butt;stroke-linejoin:miter;stroke-opacity:1" />
      <path
         inkscape:connector-curvature="0"
         id="path3399"
         d="m 227.12365,1061.5968 c -0.0479,-0.4388 2.45298,-7.9392 5.55742,-16.6676 3.10444,-8.7283 5.77523,-17.8237 5.93509,-20.212 0.15986,-2.3882 0.9779,-4.8884 1.81786,-5.5558 0.83996,-0.6674 2.30167,-3.6146 3.24825,-6.5493 2.91622,-9.0412 18.03324,-38.30962 28.17807,-54.55628 23.79684,-38.10996 45.85021,-67.8746 114.29532,-154.26028 18.9286,-23.89011 42.37265,-53.66435 52.09787,-66.16499 78.64492,-101.0889 125.78598,-174.3065 151.3352,-235.04774 11.28861,-26.83781 16.05142,-58.33564 14.94078,-98.80768 -1.1716,-42.69297 -8.94701,-84.59543 -24.2545,-130.70988 l -6.40581,-19.29777 37.68858,0 37.68859,0 2.4307,4.79822 c 9.13696,18.03645 22.76456,55.4881 31.36755,86.20492 l 3.56151,12.71632 -0.93157,17.58825 c -1.52186,28.73275 -4.31555,49.45248 -10.13493,75.16696 -17.21081,76.05043 -53.76853,148.59188 -114.03229,226.27417 -39.89787,51.42989 -88.33421,102.33055 -200.12042,210.30213 -48.61687,46.95785 -85.25822,84.766 -106.14482,109.52489 -6.0049,7.11816 -6.61038,8.28796 -8.1442,15.73446 -0.91136,4.4246 -3.93848,13.7027 -6.72693,20.6182 -5.43453,13.4777 -13.10444,30.2107 -13.24732,28.9008 z M 663.73923,416.6567 c -8.99296,-0.16725 -23.99372,-0.16757 -33.33504,-7e-4 -9.34131,0.16687 -1.98344,0.3037 16.35083,0.30409 18.33426,3.8e-4 25.97716,-0.13614 16.98421,-0.30339 z"
         style="fill:#ffffff" />
      <path
         inkscape:connector-curvature="0"
         id="path3401"
         d="M 354.32107,249.31228 C 351.22709,234.88233 340.51934,201.47513 331.78961,179.01619 316.58506,139.89952 288.31053,85.402356 265.75388,51.736968 l -4.39937,-6.565992 5.31695,-0.779113 c 2.92433,-0.428512 9.55138,-1.451291 14.72678,-2.272843 15.70267,-2.49267 22.13306,-2.057903 37.0572,2.505483 7.22259,2.208468 15.743,4.290033 18.93424,4.6257 5.75059,0.60487 5.85473,0.674888 11.69379,7.861988 48.17644,59.298719 83.01463,119.759129 105.30199,182.747789 l 4.90824,13.8717 -51.95454,0.27044 -51.95454,0.27043 -1.06355,-4.96027 0,0 z"
         style="fill:#ffffff" />
      <path
         inkscape:connector-curvature="0"
         id="path3403"
         d="m 572.45675,250.98956 c -2.40805,-6.60873 -3.64008,-9.62901 -9.61915,-23.58103 -20.69077,-48.28138 -48.41429,-91.82795 -77.59437,-121.88094 -6.60822,-6.805902 -11.83705,-12.368503 -11.61962,-12.361336 1.58438,0.05223 15.29013,4.826805 23.62883,8.231406 61.08396,24.93995 110.01527,71.74212 145.08959,138.77634 l 7.11253,13.59348 -37.99281,0 -37.9928,0 -1.0122,-2.77792 z"
         style="fill:#ffffff" />
      <path
         inkscape:connector-curvature="0"
         id="path3405"
         d="m 36.527416,245.43372 c 5.10713,-63.47847 15.588648,-132.88425 28.717758,-190.161218 2.569398,-11.209245 2.945136,-12.098261 4.990894,-11.808753 1.219007,0.172508 4.147726,-1.014451 6.522916,-2.643625 24.325336,-16.685074 52.959926,-17.197363 76.309366,-1.36522 3.18064,2.156639 8.09436,5.090106 10.91936,6.518815 l 5.13638,2.597652 1.20323,8.401328 c 3.16459,22.095958 7.49825,58.018721 10.70165,88.708451 3.40413,32.61273 8.63202,95.60562 8.63202,104.01045 l 0,4.07588 -76.90203,0 -76.902032,0 0.670488,-8.33376 0,0 z"
         style="fill:#ffffff" />
      <path
         inkscape:connector-curvature="0"
         id="path3419"
         d="m -261.40958,433.82717 c -5.02023,-99.39357 28.32166,-189.578 101.11464,-273.4988 30.47526,-35.13401 80.489917,-78.86766 120.476685,-105.346831 10.799541,-7.151436 15.603301,-8.775568 23.289087,-7.873946 9.1307384,1.071131 9.1384055,0.921373 -0.730391,14.266816 -22.527584,30.463754 -39.869883,58.790741 -56.252375,91.882891 -15.816292,31.94843 -27.548936,62.34471 -35.222266,91.25185 l -2.32353,8.75325 -54.53777,0.26116 -54.53778,0.26116 -6.14901,12.87082 c -7.74783,16.21739 -8.4479,17.90489 -14.55907,35.09418 -8.46373,23.80647 -14.71926,51.80341 -18.16922,81.31728 -0.68633,5.87144 -1.24469,22.89546 -1.2507,38.13326 -0.006,15.13966 -0.0975,27.52666 -0.2033,27.52666 -0.10584,0 -0.53109,-6.70489 -0.945,-14.89975 z"
         style="fill:#ffffff" />
    </g>
  </g>
  <g
     inkscape:groupmode="layer"
     id="layer2"
     inkscape:label="Layer"
     style="display:none" />
</svg>
