<?xml version="1.0" encoding="UTF-8" standalone="no"?>
<!-- Created with Inkscape (http://www.inkscape.org/) -->

<svg
   xmlns:dc="http://purl.org/dc/elements/1.1/"
   xmlns:cc="http://creativecommons.org/ns#"
   xmlns:rdf="http://www.w3.org/1999/02/22-rdf-syntax-ns#"
   xmlns:svg="http://www.w3.org/2000/svg"
   xmlns="http://www.w3.org/2000/svg"
   xmlns:sodipodi="http://sodipodi.sourceforge.net/DTD/sodipodi-0.dtd"
   xmlns:inkscape="http://www.inkscape.org/namespaces/inkscape"
   width="744.09448819"
   height="1052.3622047"
   id="svg2"
   version="1.1"
   inkscape:version="0.48.5 r10040"
   sodipodi:docname="New document 1">
  <defs
     id="defs4" />
  <sodipodi:namedview
     id="base"
     pagecolor="#ffffff"
     bordercolor="#666666"
     borderopacity="1.0"
     inkscape:pageopacity="0.0"
     inkscape:pageshadow="2"
     inkscape:zoom="0.98994949"
     inkscape:cx="420.16388"
     inkscape:cy="646.32651"
     inkscape:document-units="px"
     inkscape:current-layer="layer1"
     showgrid="false"
     inkscape:window-width="1920"
     inkscape:window-height="1017"
     inkscape:window-x="-4"
     inkscape:window-y="-4"
     inkscape:window-maximized="1" />
  <metadata
     id="metadata7">
    <rdf:RDF>
      <cc:Work
         rdf:about="">
        <dc:format>image/svg+xml</dc:format>
        <dc:type
           rdf:resource="http://purl.org/dc/dcmitype/StillImage" />
        <dc:title></dc:title>
      </cc:Work>
    </rdf:RDF>
  </metadata>
  <g
     inkscape:label="Layer 1"
     inkscape:groupmode="layer"
     id="layer1">
    <path
       style="fill:#8a916f;stroke:#8a916f;stroke-width:1px;stroke-linecap:butt;stroke-linejoin:miter;stroke-opacity:1;fill-opacity:1"
       d="M 9.0913729,415.96608 C 124.77881,317.66968 76.362138,282.11897 361.63461,118.98123 c 49.12236,12.38176 69.83423,120.47555 118.18785,133.34014 29.32939,-11.50731 31.59111,-41.77119 92.93403,-66.67007 239.91229,206.98718 190.48878,114.959 254.55844,237.38585 l -826.3047775,0 z"
       id="path3791"
       inkscape:connector-curvature="0"
       sodipodi:nodetypes="ccccccc" />
    <path
       style="fill:#aca793;stroke:none"
       d="m 201.32493,315.63537 c -18.89166,7.25714 -31.59554,16.31904 -34.34518,28.28427 8.2198,13.95316 4.92491,19.93461 5.05076,28.28427 7.07107,-26.33522 14.14213,-33.68723 21.2132,-37.37564 25.28263,-16.08229 10.98605,-15.19557 8.08122,-19.1929 z"
       id="path3793"
       inkscape:connector-curvature="0"
       sodipodi:nodetypes="ccccc" />
    <path
       style="fill:#aca793;stroke:none"
       d="m 320.05217,232.15804 c -9.09262,16.34177 -25.06644,17.01359 -34.34518,28.28427 -9.90913,24.73252 -2.31876,28.59623 5.05076,28.28427 14.667,-32.95101 15.93178,-26.26544 29.7995,-35.35533 17.62658,-23.58404 12.69768,-40.75401 -0.50508,-21.21321 z"
       id="path3793-7"
       inkscape:connector-curvature="0"
       sodipodi:nodetypes="ccccc" />
    <path
       style="fill:#aca793;stroke:none"
       d="m 460.67803,295.44366 c -9.09262,16.34177 -10.67176,45.80293 -23.2335,52.27539 -1.57537,16.90384 4.75231,14.20156 5.05076,28.28427 6.83832,-2.14136 4.31503,-22.98244 44.44671,-21.71827 -21.76937,-16.76551 -9.0206,-41.25909 -26.26397,-58.84139 z"
       id="path3793-7-6"
       inkscape:connector-curvature="0"
       sodipodi:nodetypes="ccccc" />
    <path
       style="fill:#a7ac93;stroke:none"
       d="m 362.85714,131.6479 c 22.52396,-6.71419 63.14197,88.37884 101.42857,130.71428 17.36625,29.71781 -32.54475,13.30265 -80,-1.42857 20.10911,-2.87429 43.53793,-3.63604 43.57143,-19.28572 -29.3945,17.44664 -29.88304,-0.19563 -43.92857,-3.21428 17.27301,-3.87651 37.19894,-6.62042 21.78571,-23.57143 -17.37555,16.37406 -22.17907,3.73067 -28.21428,1.78571 4.32913,-7.43225 13.05604,-11.01643 25,-11.78571 -8.69266,-4.27156 -16.92746,-10.37453 -28.35703,-3.6984 l 19.6534,-14.30633 c -9.13263,5.12397 -27.03466,-6.36842 -39.33844,4.39626 -2.73404,2.39203 5.48271,-6.84755 6.6135,-12.10581 L 385,175.93361 365.21428,169.21932 c 4.92737,-0.50621 10.45646,0.15037 11.28941,-8.26802 l -7.6652,0.19058 c 3.19107,-2.91989 5.87214,-5.92479 3.44061,-9.78178 z"
       id="path3831"
       inkscape:connector-curvature="0"
       sodipodi:nodetypes="ccccccccccsccccccc" />
    <path
       style="fill:#a7ac93;stroke:none"
       d="m 569.76654,196.2389 c 19.38472,5.43679 42.90461,28.51816 73.13464,55.67673 2.41973,2.17389 -31.18897,-13.12611 -28.68193,-10.90694 1.91697,1.69685 39.93127,20.90491 41.90064,22.62106 16.91892,14.74349 35.79357,30.0844 56.99828,44.0504 1.53261,1.00942 -32.69565,-10.78541 -29.17394,-8.38781 3.1528,2.14645 44.07685,18.50386 45.47688,19.37092 24.71212,15.30456 36.30632,26.11933 55.70083,42.70133 2.69776,3.56956 -70.62557,-37.33517 -69.87188,-34.1459 0.69857,2.95609 75.60419,50.0332 74.79498,52.65738 -9.48704,30.76536 -117.2261,38.54887 -197.33408,19.32102 39.96497,-4.4169 116.8847,-9.15891 116.95127,-33.20767 -58.41882,26.81014 -89.74688,3.27081 -117.66106,-1.36792 34.32849,-5.95701 110.00084,-13.74499 79.36849,-39.79349 -34.53228,25.16191 -80.15025,9.30433 -92.14466,6.31552 8.60374,-11.42109 59.16194,-21.57174 82.89945,-22.75388 -17.27586,-6.56408 -66.85603,-11.29961 -89.57123,-1.04045 l 72.27357,-24.48444 c -18.15025,7.87397 -86.94314,-7.2863 -111.39575,9.2557 -5.43365,3.67582 10.89637,-10.52258 13.14371,-18.60291 l 72.5558,-9.58224 -64.32227,-5.67495 c 9.79268,-0.77789 39.7098,-4.76892 41.36522,-17.70541 l -34.16245,5.29287 c 6.34196,-4.48698 11.67033,-9.10459 6.83789,-15.0316 z"
       id="path3831-3"
       inkscape:connector-curvature="0"
       sodipodi:nodetypes="csssssscssccccccccsccccccc" />
  </g>
</svg>
