<?xml version="1.0" encoding="UTF-8" standalone="no"?>
<!-- Created with Inkscape (http://www.inkscape.org/) -->

<svg
   xmlns:dc="http://purl.org/dc/elements/1.1/"
   xmlns:cc="http://creativecommons.org/ns#"
   xmlns:rdf="http://www.w3.org/1999/02/22-rdf-syntax-ns#"
   xmlns:svg="http://www.w3.org/2000/svg"
   xmlns="http://www.w3.org/2000/svg"
   xmlns:sodipodi="http://sodipodi.sourceforge.net/DTD/sodipodi-0.dtd"
   xmlns:inkscape="http://www.inkscape.org/namespaces/inkscape"
   width="744.09448819"
   height="1052.3622047"
   id="svg3068"
   version="1.1"
   inkscape:version="0.48.5 r10040"
   sodipodi:docname="balloon.svg"
   enable-background="new"
   inkscape:export-filename="C:\Users\Hans\Documents\Visual Studio 2013\Projects\Burgerman\Burgerman\Content\balloon_animated\balloon.png"
   inkscape:export-xdpi="90"
   inkscape:export-ydpi="90">
  <defs
     id="defs3070" />
  <sodipodi:namedview
     id="base"
     pagecolor="#ffffff"
     bordercolor="#666666"
     borderopacity="1.0"
     inkscape:pageopacity="0.0"
     inkscape:pageshadow="2"
     inkscape:zoom="0.98994949"
     inkscape:cx="275.57635"
     inkscape:cy="679.19468"
     inkscape:document-units="px"
     inkscape:current-layer="layer4"
     showgrid="false"
     inkscape:window-width="1920"
     inkscape:window-height="1017"
     inkscape:window-x="-4"
     inkscape:window-y="-4"
     inkscape:window-maximized="1" />
  <metadata
     id="metadata3073">
    <rdf:RDF>
      <cc:Work
         rdf:about="">
        <dc:format>image/svg+xml</dc:format>
        <dc:type
           rdf:resource="http://purl.org/dc/dcmitype/StillImage" />
        <dc:title></dc:title>
      </cc:Work>
    </rdf:RDF>
  </metadata>
  <g
     inkscape:label="Layer 1"
     inkscape:groupmode="layer"
     id="layer1"
     style="opacity:0;display:none" />
  <g
     inkscape:groupmode="layer"
     id="layer3"
     inkscape:label="ballon"
     style="display:none">
    <path
       style="fill:none;stroke:#000000;stroke-width:0.73531473px;stroke-linecap:butt;stroke-linejoin:miter;stroke-opacity:1"
       d="m 322.13759,34.772141 -26.11586,-2.530537 -31.71213,10.965652 -26.11587,3.374042 -69.95322,35.427481 -37.30837,32.896951 -26.11587,50.61069 -12.125226,57.35879 3.730837,46.39312 23.317749,60.73283 37.30838,59.04581 62.49154,70.85497 71.81863,68.32444 26.11587,29.52289 2.79812,9.27865 2.79814,5.90456 20.5196,57.35877 -14.92335,-57.35877 27.04858,5.9046 32.64483,-2.53056 25.18316,-2.53051 -22.38503,59.0458 -45.70277,-1.68703 0,37.95799 14.92336,5.06112 24.25044,0 10.25981,-5.90461 -2.79813,-35.42747 27.04858,-60.73287 0.93271,-8.43506 151.09894,-153.51912 55.02987,-72.542 26.11587,-66.6374 8.39437,-63.26336 -36.37566,-79.29008 -45.70277,-50.610697 -79.28031,-34.583967 -21.45232,-0.843515 -27.98129,-10.122137 -27.04857,3.374042 -20.51962,-6.748085 -19.5869,0.843507 -6.52896,7.591609 -13.05794,-6.748094 -21.45232,-0.843515 z"
       id="path2995"
       inkscape:connector-curvature="0" />
    <path
       sodipodi:nodetypes="sssccsscccccccccccccsss"
       style="fill:#ff0000"
       d="m 403.93622,602.27728 c 0,-0.39181 2.36889,-6.91651 5.26419,-14.49941 2.8953,-7.5829 5.01689,-14.01074 4.71462,-14.28413 -0.30227,-0.27333 -4.87468,-0.0406 -10.16092,0.51676 -27.6253,7.43161 -47.76512,8.34083 -75.26858,-1.51971 -0.42874,0.15014 0.82477,6.34629 2.78559,13.76918 1.96083,7.42289 3.54665,14.06557 3.52405,14.76144 -0.0406,1.25005 -11.4289,-28.43525 -14.78358,-38.53544 C 246.12977,456.10949 68.136445,363.5752 99.517924,194.87062 112.12808,112.69578 172.58735,59.340094 251.78827,45.580875 c 11.21744,-1.3559 10.97506,-12.431707 28.48439,-7.000374 11.03021,-13.310042 22.26915,-11.143537 42.05148,-3.041325 15.67713,-12.523257 34.10139,-11.18455 47.2599,-0.691931 l 7.15341,3.595174 c 13.94678,-17.014911 30.18312,-7.176182 46.31932,-2.016398 l 13.36014,-1.661531 c 12.75054,-2.832347 16.01352,-0.728155 27.98129,3.481706 23.96517,2.189208 48.15968,-5.444531 74.33498,22.996062 C 603.01423,78.340396 640.82936,133.7386 659.75132,207.5233 658.73133,369.12395 498.2641,467.78428 419.32593,563.11374 l -0.55664,4.40329 c -0.31746,2.51119 -3.46595,10.92731 -7.32738,19.58643 -6.61203,14.82733 -7.50569,16.63398 -7.50569,15.17382 z"
       id="path2997"
       inkscape:connector-curvature="0" />
    <path
       style="fill:#550000"
       d="m 353.33672,670.90885 -7.22849,-2.54905 0,-18.15266 0,-18.15265 20.75279,0.61833 c 11.41403,0.34012 21.62032,0.91345 22.68062,1.27414 1.79889,0.61186 2.00815,1.76462 3.12908,17.23592 0.66071,9.11913 1.05235,16.70115 0.87032,16.84899 -0.18203,0.14778 -2.476,1.45287 -5.09769,2.90014 -4.67925,2.58313 -4.97868,2.63044 -16.32241,2.57863 -10.56633,-0.0483 -12.17461,-0.27097 -18.78422,-2.60179 z"
       id="path2999"
       inkscape:connector-curvature="0" />
    <path
       style="fill:none;stroke:#000000;stroke-width:0.90465403px;stroke-linecap:butt;stroke-linejoin:miter;stroke-opacity:1"
       d="M 257.80896,42.878605 C 69.676078,174.99879 148.84987,334.28007 193.18361,386.30042 c 56.30493,68.66223 122.19414,110.10749 144.22188,188.31507"
       id="path3181"
       inkscape:connector-curvature="0"
       sodipodi:nodetypes="ccc" />
    <path
       style="fill:none;stroke:#000000;stroke-width:0.90465403px;stroke-linecap:butt;stroke-linejoin:miter;stroke-opacity:1"
       d="M 538.95778,60.944195 C 586.35762,99.94594 630.76373,210.08166 607.93345,281.88811 566.5831,385.10463 436.18483,503.99267 414.44324,570.88646"
       id="path3183"
       inkscape:connector-curvature="0"
       sodipodi:nodetypes="ccc" />
    <path
       style="fill:none;stroke:#000000;stroke-width:0.90465403px;stroke-linecap:butt;stroke-linejoin:miter;stroke-opacity:1"
       d="m 375.92437,35.773368 c 29.57208,197.520212 5.08762,361.286212 2.68736,538.842122 l -0.89579,-4.6613"
       id="path3185"
       inkscape:connector-curvature="0"
       sodipodi:nodetypes="ccc" />
    <path
       style="fill:none;stroke:#000000;stroke-width:0.90465403px;stroke-linecap:butt;stroke-linejoin:miter;stroke-opacity:1"
       d="M 319.48973,34.841108 C 277.2222,212.03003 308.5927,391.23568 356.21703,570.88646"
       id="path3187"
       inkscape:connector-curvature="0"
       sodipodi:nodetypes="cc" />
    <path
       style="fill:none;stroke:#000000;stroke-width:0.90465403px;stroke-linecap:butt;stroke-linejoin:miter;stroke-opacity:1"
       d="m 424.29691,34.841108 c 138.41848,206.993012 4.97264,360.936442 -29.561,534.180862"
       id="path3189"
       inkscape:connector-curvature="0"
       sodipodi:nodetypes="cc" />
    <path
       style="fill:none;stroke:#000000;stroke-width:0.90465403px;stroke-linecap:butt;stroke-linejoin:miter;stroke-opacity:1"
       d="M 471.77369,38.570119 C 632.956,233.60638 500.50638,398.35947 407.27695,567.15748"
       id="path3191"
       inkscape:connector-curvature="0"
       sodipodi:nodetypes="cc" />
    <path
       style="fill:none;stroke:#000000;stroke-width:0.90465403px;stroke-linecap:butt;stroke-linejoin:miter;stroke-opacity:1"
       d="M 281.31231,36.000058 C 124.45583,235.4682 286.10021,409.30506 345.46758,574.61549"
       id="path3193"
       inkscape:connector-curvature="0"
       sodipodi:nodetypes="cc" />
    <path
       style="fill:none;stroke:#000000;stroke-width:0.54875016px;stroke-linecap:butt;stroke-linejoin:miter;stroke-opacity:1"
       d="m 344.87471,574.21331 c 1.19127,2.38251 1.10864,1.39092 1.10864,2.77158"
       id="path3373"
       inkscape:connector-curvature="0" />
    <path
       style="fill:none;stroke:#000000;stroke-width:0.54875016px;stroke-linecap:butt;stroke-linejoin:miter;stroke-opacity:1"
       d="m 355.96113,570.88734 1.66296,8.31483"
       id="path3379"
       inkscape:connector-curvature="0" />
    <path
       style="fill:none;stroke:#000000;stroke-width:0.54875016px;stroke-linecap:butt;stroke-linejoin:miter;stroke-opacity:1"
       d="m 378.13399,574.76761 0.55432,3.32592"
       id="path3381"
       inkscape:connector-curvature="0" />
    <path
       style="fill:none;stroke:#000000;stroke-width:0.54875016px;stroke-linecap:butt;stroke-linejoin:miter;stroke-opacity:1"
       d="m 394.76362,568.67006 -0.55432,7.76053"
       id="path3383"
       inkscape:connector-curvature="0" />
    <path
       style="fill:none;stroke:#000000;stroke-width:0.54875016px;stroke-linecap:butt;stroke-linejoin:miter;stroke-opacity:1"
       d="m 406.40438,567.00713 -0.55432,7.20618"
       id="path3385"
       inkscape:connector-curvature="0" />
    <path
       style="fill:#ffffff"
       d="m 340.55891,575.99467 c -2.1804,-0.52768 -2.26703,-0.63974 -3.26909,-4.22944 -4.6316,-16.59178 -15.18403,-38.44122 -27.08002,-56.07077 -12.94916,-19.19033 -25.78723,-33.95031 -59.70565,-68.64384 -47.55781,-48.64462 -63.12367,-66.81965 -76.96217,-89.8627 -13.34425,-22.22007 -23.44849,-47.47711 -28.84052,-72.09115 -9.71493,-44.34764 -4.29256,-90.33778 15.24433,-129.29546 l 2.43239,-4.85031 30.54142,0 c 25.49514,0 30.4937,0.12433 30.25266,0.75248 -1.53189,3.99204 -5.33699,23.33885 -6.72045,34.16977 -3.63573,28.46353 -1.92861,62.54167 4.70269,93.87686 4.53539,21.4312 10.40949,41.29912 19.11696,64.65905 10.85025,29.1085 21.61902,52.97425 47.64829,105.59822 33.62104,67.97244 44.48625,91.58709 54.06975,117.51612 1.46489,3.9634 2.83417,7.64272 3.04283,8.17627 0.43781,1.11945 -0.74423,1.19737 -4.47342,0.2949 z"
       id="path3389"
       inkscape:connector-curvature="0" />
    <path
       style="fill:#ffffff"
       d="m 359.32189,579.05444 c -0.9674,-0.18789 -1.34104,-0.84293 -1.83323,-3.21381 -0.34,-1.63774 -0.64578,-3.55551 -0.67952,-4.26165 -0.0337,-0.70613 -1.28272,-6.0233 -2.77553,-11.81597 -32.42421,-125.81777 -47.25663,-211.81972 -52.6287,-305.15392 -1.37022,-23.80602 -0.72277,-90.13368 0.99155,-101.57939 l 0.31135,-2.0787 42.04573,0 42.04573,0 0.28719,2.35587 c 0.45743,3.75244 1.38318,25.50702 2.0699,48.64169 0.39367,13.26228 0.50788,35.08633 0.30166,57.64943 -0.42924,46.9672 -1.28874,72.15236 -5.08879,149.11245 -3.69023,74.73594 -5.14818,109.685 -6.13395,147.03965 -0.19921,7.54897 -0.59367,13.86843 -0.87658,14.04326 -0.2829,0.17483 -0.38824,0.73346 -0.23408,1.24133 0.15416,0.50787 0.43142,2.29152 0.61614,3.96373 0.18472,1.67215 0.58388,3.19362 0.88704,3.38096 1.28908,0.79673 -15.63334,1.38839 -19.30591,0.67507 l 0,0 z"
       id="path3391"
       inkscape:connector-curvature="0" />
    <path
       style="fill:#ffffff"
       d="m 394.98726,573.14139 c 0.39399,-3.83824 3.04683,-16.19836 6.08366,-28.34506 7.16026,-28.63969 16.31113,-56.72875 38.46504,-118.07045 33.49985,-92.75733 43.84358,-134.77296 46.63763,-189.43933 1.25203,-24.49633 -1.23863,-54.36152 -6.50668,-78.02073 -0.78068,-3.50608 -1.54233,-6.81122 -1.69256,-7.34476 -0.2576,-0.91484 1.35166,-0.97006 28.27242,-0.97006 l 28.54558,0 0.92971,3.18734 c 5.48344,18.799 8.64952,35.82715 10.28083,55.29356 0.81953,9.77931 0.34388,36.41096 -0.84152,47.11732 -5.2045,47.00624 -20.06811,92.43451 -49.51334,151.32973 -12.36281,24.72762 -24.39262,46.46488 -55.37233,100.05501 -10.66282,18.44504 -22.5804,39.21131 -26.48351,46.14726 -3.90311,6.93597 -7.3174,12.61081 -7.58731,12.61081 -0.26991,0 -0.49075,1.22685 -0.49075,2.72625 0,3.51496 -0.39905,4.47775 -1.86085,4.48943 -0.65335,0.005 -2.98123,0.47533 -5.17306,1.04472 l -3.98513,1.03516 0.29217,-2.8462 0,0 z"
       id="path3393"
       inkscape:connector-curvature="0" />
    <path
       style="fill:none;stroke:#000000;stroke-width:0.54875016px;stroke-linecap:butt;stroke-linejoin:miter;stroke-opacity:1"
       d="m 414.16487,570.33305 -2.21728,3.88026"
       id="path3397"
       inkscape:connector-curvature="0" />
    <path
       style="fill:#ffffff"
       d="m 407.42485,594.24747 c -0.0263,-0.24079 1.34607,-4.35664 3.04963,-9.14635 1.70357,-4.78966 3.16916,-9.78076 3.25689,-11.09134 0.0877,-1.31052 0.53662,-2.68251 0.99755,-3.04874 0.46093,-0.36624 1.26304,-1.98352 1.78247,-3.59393 1.60028,-4.96136 9.89575,-21.02241 15.46273,-29.93777 13.05851,-20.91285 25.16031,-37.2462 62.71957,-84.65035 10.38707,-13.10971 23.252,-29.44832 28.58871,-36.30805 43.15642,-55.47255 69.02508,-95.65072 83.04522,-128.98249 6.19463,-14.72725 8.80822,-32.01169 8.19876,-54.22073 -0.64292,-23.42777 -4.90968,-46.42175 -13.30967,-71.72707 l -3.51518,-10.58965 20.68161,0 20.68162,0 1.33385,2.63302 c 5.0139,9.89751 12.49205,30.44911 17.21294,47.30497 l 1.95438,6.97808 -0.5112,9.65156 c -0.83512,15.7671 -2.36815,27.13705 -5.56154,41.24788 -9.44443,41.73268 -29.50549,81.53981 -62.57524,124.16798 -21.89396,28.22216 -48.47341,56.15391 -109.81611,115.40333 -26.67852,25.76813 -46.78546,46.51536 -58.24699,60.1018 -3.29519,3.90609 -3.62744,4.54802 -4.46913,8.63429 -0.50011,2.428 -2.16124,7.51936 -3.6914,11.31424 -2.9822,7.39589 -7.19107,16.57813 -7.26947,15.85932 z M 647.01772,240.33649 c -4.93489,-0.0918 -13.16656,-0.092 -18.29261,-3.9e-4 -5.12605,0.0916 -1.08841,0.16666 8.97252,0.16687 10.06093,2.1e-4 14.25497,-0.0747 9.32009,-0.16648 z"
       id="path3399"
       inkscape:connector-curvature="0" />
    <path
       style="fill:#ffffff"
       d="m 477.22445,148.50621 c -1.69782,-7.91844 -7.5737,-26.25065 -12.36414,-38.57499 -8.3435,-21.465281 -23.85915,-51.370608 -36.23712,-69.844496 l -2.41415,-3.603089 2.91768,-0.427538 c 1.60472,-0.235146 5.24132,-0.796396 8.08132,-1.247223 8.61684,-1.367853 12.14552,-1.129275 20.33514,1.374884 3.9634,1.211897 8.63898,2.354156 10.39017,2.538354 3.15564,0.331922 3.21278,0.370345 6.41697,4.314267 26.43683,32.540181 45.55429,65.717841 57.78448,100.282881 l 2.6934,7.61209 -28.51006,0.14841 -28.51006,0.1484 -0.58363,-2.72195 0,0 z"
       id="path3401"
       inkscape:connector-curvature="0" />
    <path
       style="fill:#ffffff"
       d="m 596.92644,149.42662 c -1.32141,-3.62655 -1.99749,-5.28392 -5.27851,-12.9401 -11.35406,-26.49441 -26.56735,-50.3906 -42.57992,-66.882183 -3.62626,-3.73474 -6.49558,-6.787218 -6.37627,-6.783285 0.86943,0.02866 8.39046,2.64871 12.96633,4.516985 33.51983,13.685802 60.37089,39.368503 79.61793,76.153543 l 3.903,7.45942 -20.84856,0 -20.84855,0 -0.55545,-1.52438 z"
       id="path3403"
       inkscape:connector-curvature="0" />
    <path
       style="fill:#ffffff"
       d="m 302.83514,146.37785 c 2.80253,-34.83382 8.55427,-72.920255 15.75887,-104.351001 1.40996,-6.151075 1.61614,-6.638922 2.73875,-6.480055 0.66893,0.09466 2.27607,-0.55668 3.57945,-1.450689 13.34854,-9.155937 29.06177,-9.437056 41.87478,-0.749165 1.74538,1.183456 4.44178,2.793196 5.992,3.577201 l 2.81859,1.425462 0.66027,4.61023 c 1.73657,12.12516 4.11467,31.837782 5.87254,48.678776 1.86801,17.896241 4.73682,52.463601 4.73682,57.075751 l 0,2.23664 -42.2,0 -42.20001,0 0.36794,-4.57315 0,0 z"
       id="path3405"
       inkscape:connector-curvature="0" />
    <path
       style="fill:#ffffff"
       d="m 139.34216,249.75878 c -2.75485,-54.54223 15.54152,-104.03095 55.48668,-150.082506 16.7233,-19.279794 44.16885,-43.278641 66.1116,-57.809091 5.92625,-3.924351 8.56231,-4.815594 12.77989,-4.320829 5.01049,0.587784 5.0147,0.505604 -0.40081,7.828918 -12.36201,16.71699 -21.8786,32.261428 -30.8685,50.420751 -8.67919,17.531707 -15.11748,34.211667 -19.32822,50.074467 l -1.27504,4.80335 -29.92761,0.14331 -29.92761,0.14331 -3.37427,7.06287 c -4.25163,8.89929 -4.63579,9.82531 -7.98929,19.25793 -4.64448,13.06381 -8.0772,28.42713 -9.97037,44.62287 -0.37662,3.22196 -0.68302,12.56389 -0.68632,20.92564 -0.003,8.30789 -0.0535,15.10525 -0.11156,15.10525 -0.0581,0 -0.29144,-3.67931 -0.51857,-8.17624 z"
       id="path3419"
       inkscape:connector-curvature="0" />
  </g>
  <g
     inkscape:groupmode="layer"
     id="layer2"
     inkscape:label="Layer"
     style="display:none">
    <path
       style="fill:none;stroke:#000000;stroke-width:1px;stroke-linecap:butt;stroke-linejoin:miter;stroke-opacity:1"
       d="M 271.73104,509.91026 C 162.6765,383.14957 96.180553,341.20908 92.993231,236.14486 90.978011,169.71683 141.93184,75.567347 225.26402,58.372076 237.8478,45.373592 269.91711,32.347073 279.81226,38.169024 c 11.17594,-9.844487 23.86672,-13.629573 40.4061,-2.020305 17.16212,-10.890173 34.72388,-17.384352 54.54824,1.010153 14.4924,-15.703782 31.33978,-10.212799 48.48732,-2.020306 22.13929,-10.038582 36.03828,-5.656645 47.47717,3.030458 32.12532,-6.603365 51.58837,5.786671 67.68022,23.233509 70.90936,24.349878 111.29167,78.659947 119.16513,158.348287 15.08899,152.71776 -120.38651,189.10139 -182.80474,291.1696 -33.03226,11.43278 -175.38212,11.73881 -203.04066,-1.01016 z"
       id="path3073"
       inkscape:connector-curvature="0"
       sodipodi:nodetypes="cscccccccscc" />
  </g>
  <g
     inkscape:groupmode="layer"
     id="layer4"
     inkscape:label="final">
    <path
       style="fill:#ff0000;stroke:#000000;stroke-width:1px;stroke-linecap:butt;stroke-linejoin:miter;stroke-opacity:1;display:inline"
       d="M 296.98485,514.96102 C 244.28579,375.50876 126.22658,264.9864 225.26402,58.372076 105.31304,95.406155 93.998479,192.38034 92.934033,248.28075 80.259555,312.8069 212.94951,440.79806 271.73103,511.93057 z"
       id="path3075"
       inkscape:connector-curvature="0"
       sodipodi:nodetypes="ccccc" />
    <path
       style="fill:#f9f9f9;stroke:#000000;stroke-width:1px;stroke-linecap:butt;stroke-linejoin:miter;stroke-opacity:1"
       d="M 295.9747,513.95087 C 246.02785,376.57036 130.46896,276.52085 224.25387,57.361923 253.77533,41.922256 281.06444,16.065018 318.19805,36.148719 265.30812,200.94858 285.90479,360.23696 340.42141,516.98133 c -8.69194,2.05166 -25.02553,0.2825 -44.44671,-3.03046 z"
       id="path3096"
       inkscape:connector-curvature="0"
       sodipodi:nodetypes="ccccc" />
    <path
       style="fill:#ff0000;stroke:#000000;stroke-width:1px;stroke-linecap:butt;stroke-linejoin:miter;stroke-opacity:1"
       d="m 341.43156,517.99148 c 19.6426,3.48016 36.8946,4.56972 48.48732,0 C 416.94023,373.19024 465.5335,250.75988 424.26407,35.138566 389.24545,15.805008 354.22683,21.370635 319.20821,34.128414 246.98941,261.90608 303.76895,386.18246 341.43156,517.99148 z"
       id="path3098"
       inkscape:connector-curvature="0"
       sodipodi:nodetypes="ccccc" />
    <path
       style="fill:#f9f9f9;stroke:#000000;stroke-width:1px;stroke-linecap:butt;stroke-linejoin:miter;stroke-opacity:1"
       d="m 387.89858,520.01179 47.47717,-3.03046 C 535.80887,363.28886 590.92194,210.39148 538.41131,59.382228 486.7726,18.22593 455.84491,26.258301 425.27422,35.138566 457.32209,199.17236 430.91544,361.33976 387.89858,520.01179 z"
       id="path3100"
       inkscape:connector-curvature="0"
       sodipodi:nodetypes="ccccc" />
    <path
       style="fill:#ff0000;stroke:#000000;stroke-width:1px;stroke-linecap:butt;stroke-linejoin:miter;stroke-opacity:1"
       d="M 435.37575,516.98133 C 494.2547,392.28165 591.36827,311.03042 539.42146,60.39238 c 82.02399,31.623478 120.6771,92.62723 119.198,180.81731 C 648.52109,391.58786 532.48709,412.77673 474.7717,512.94072 z"
       id="path3102"
       inkscape:connector-curvature="0"
       sodipodi:nodetypes="ccccc" />
    <path
       style="fill:#aa4400;stroke:#000000;stroke-width:1px;stroke-linecap:butt;stroke-linejoin:miter;stroke-opacity:1"
       d="m 275.77165,632.13872 10.10153,53.53808 c 48.26537,15.4457 100.33317,22.01905 164.65486,1e-5 l 10.10152,-58.58885 c -61.6193,17.55482 -123.23861,14.23145 -184.85791,5.05076 z"
       id="path3104"
       inkscape:connector-curvature="0"
       sodipodi:nodetypes="ccccc" />
    <rect
       style="fill:#333333"
       id="rect3106"
       width="35.355339"
       height="25.253813"
       x="353.55341"
       y="578.60065" />
    <path
       style="fill:none;stroke:#000000;stroke-width:1px;stroke-linecap:butt;stroke-linejoin:miter;stroke-opacity:1"
       d="m 269.71073,511.93057 5.05076,119.198 -1.01015,0"
       id="path3108"
       inkscape:connector-curvature="0" />
    <path
       style="fill:none;stroke:#000000;stroke-width:1px;stroke-linecap:butt;stroke-linejoin:miter;stroke-opacity:1"
       d="M 477.80216,514.96103 459.61941,626.07781"
       id="path3110"
       inkscape:connector-curvature="0" />
    <path
       style="fill:none;stroke:#000000;stroke-width:1px;stroke-linecap:butt;stroke-linejoin:miter;stroke-opacity:1"
       d="m 453.55849,515.97118 -65.65991,62.62946"
       id="path3112"
       inkscape:connector-curvature="0" />
    <path
       style="fill:none;stroke:#000000;stroke-width:1px;stroke-linecap:butt;stroke-linejoin:miter;stroke-opacity:1"
       d="m 287.89348,512.94072 68.69037,68.69037"
       id="path3114"
       inkscape:connector-curvature="0"
       sodipodi:nodetypes="cc" />
    <path
       style="fill:none;stroke:#000000;stroke-width:1px;stroke-linecap:butt;stroke-linejoin:miter;stroke-opacity:1"
       d="m 406.08132,519.00164 -26.26396,59.59899"
       id="path3116"
       inkscape:connector-curvature="0"
       sodipodi:nodetypes="cc" />
  </g>
</svg>
