<?xml version="1.0" encoding="UTF-8" standalone="no"?>
<!-- Created with Inkscape (http://www.inkscape.org/) -->

<svg
   xmlns:dc="http://purl.org/dc/elements/1.1/"
   xmlns:cc="http://creativecommons.org/ns#"
   xmlns:rdf="http://www.w3.org/1999/02/22-rdf-syntax-ns#"
   xmlns:svg="http://www.w3.org/2000/svg"
   xmlns="http://www.w3.org/2000/svg"
   xmlns:sodipodi="http://sodipodi.sourceforge.net/DTD/sodipodi-0.dtd"
   xmlns:inkscape="http://www.inkscape.org/namespaces/inkscape"
   width="210mm"
   height="297mm"
   viewBox="0 0 744.09448819 1052.3622047"
   id="svg2"
   version="1.1"
   inkscape:version="0.91 r13725"
   sodipodi:docname="cloud.svg">
  <defs
     id="defs4" />
  <sodipodi:namedview
     id="base"
     pagecolor="#ffffff"
     bordercolor="#666666"
     borderopacity="1.0"
     inkscape:pageopacity="0.0"
     inkscape:pageshadow="2"
     inkscape:zoom="0.98994949"
     inkscape:cx="264.60475"
     inkscape:cy="418.76436"
     inkscape:document-units="px"
     inkscape:current-layer="layer1"
     showgrid="false"
     inkscape:window-width="1600"
     inkscape:window-height="837"
     inkscape:window-x="-8"
     inkscape:window-y="-8"
     inkscape:window-maximized="1" />
  <metadata
     id="metadata7">
    <rdf:RDF>
      <cc:Work
         rdf:about="">
        <dc:format>image/svg+xml</dc:format>
        <dc:type
           rdf:resource="http://purl.org/dc/dcmitype/StillImage" />
        <dc:title></dc:title>
      </cc:Work>
    </rdf:RDF>
  </metadata>
  <g
     inkscape:label="Layer 1"
     inkscape:groupmode="layer"
     id="layer1">
    <g
       id="g5897"
       transform="matrix(1.0006038,0,0,0.82151597,-0.22216522,73.30021)"
       inkscape:export-xdpi="100.35707"
       inkscape:export-ydpi="100.35707">
      <path
         style="fill:#ffffff;fill-opacity:1;fill-rule:evenodd;stroke:none;stroke-width:3.48731565;stroke-linecap:butt;stroke-linejoin:miter;stroke-miterlimit:4;stroke-dasharray:none;stroke-opacity:1"
         d="m 117.52474,496.79084 c -3.50887,-33.30663 28.48608,-57.86394 60.42674,-54.16475 21.50549,-26.32194 49.28559,-28.82265 73.04329,-14.71142 50.03016,-25.15455 90.46086,-18.5425 118.86135,1.33741 39.37305,-15.63354 91.8054,-7.78847 108.23687,26.07932 36.78993,-14.4328 85.75508,-6.30792 102.26061,24.07323 41.20976,2.21849 65.80869,35.2605 50.46627,76.90057 9.70984,43.255 -25.37463,74.11661 -67.73106,67.53878 -24.81089,48.09117 -76.36542,43.59655 -115.5412,19.39232 -41.08192,37.87344 -110.29321,31.77403 -147.41463,6.01831 -52.56002,15.25977 -70.43108,0.60771 -98.27642,-29.42283 -50.76573,3.69875 -64.70991,-7.01291 -78.35555,-49.48386 -21.11,-5.96614 -36.214394,-50.65218 -5.97627,-73.55708 z"
         id="path5895"
         inkscape:connector-curvature="0"
         sodipodi:nodetypes="ccccccccccccc" />
      <path
         sodipodi:nodetypes="cccccccccccccccccccccccccccccccccccccccccccc"
         inkscape:connector-curvature="0"
         id="path5893"
         d="m 123.21429,570.39792 3.75,10.17857 5.35714,13.21428 6.60714,9.28572 10.89286,10.53571 11.25,4.10715 15.35714,3.03571 10,0.17857 15.17857,-1.25 22.14286,21.42857 11.60714,7.67857 12.67857,4.64286 15.89286,2.32143 12.5,-1.25 13.75,-2.32143 10,-2.67857 13.75001,7.67857 15.35714,6.60714 23.57143,5.17858 25,1.07142 20,-1.96428 16.60714,-4.64286 22.14286,-11.42857 10.71428,-8.92857 15.17857,8.21428 15.89286,6.07143 18.03572,3.39286 15.53571,0.17857 15.35714,-3.92857 12.85715,-6.25 13.57143,-12.14286 9.28571,-14.82143 10.17857,1.25 18.21429,-2.32142 18.92857,-8.39286 11.96428,-11.78572 8.57143,-16.96428 1.78572,-16.07143 -2.14286,-13.03571 c -22.48202,25.52331 -48.46068,24.82181 -76.3188,10.02435 -30.03878,30.99952 -65.92605,36.00576 -108.08632,13.13198 -43.39753,29.86583 -89.77628,34.09312 -139.90613,6.06092 -35.83693,16.95921 -69.19105,20.26297 -96.97465,-7.07107 -34.16769,13.04218 -62.64201,9.71594 -86.03553,-8.21761 z"
         style="fill:#787878;fill-opacity:0.47058824;fill-rule:evenodd;stroke:none;stroke-width:1px;stroke-linecap:butt;stroke-linejoin:miter;stroke-opacity:1" />
      <path
         sodipodi:nodetypes="ccccccccccccc"
         inkscape:connector-curvature="0"
         id="path5844"
         d="m 117.52474,496.79084 c -3.50887,-33.30663 28.48608,-57.86394 60.42674,-54.16475 21.50549,-26.32194 49.28559,-28.82265 73.04329,-14.71142 50.03016,-25.15455 90.46086,-18.5425 118.86135,1.33741 39.37305,-15.63354 91.8054,-7.78847 108.23687,26.07932 36.78993,-14.4328 85.75508,-6.30792 102.26061,24.07323 41.20976,2.21849 65.80869,35.2605 50.46627,76.90057 9.70984,43.255 -25.37463,74.11661 -67.73106,67.53878 -24.81089,48.09117 -76.36542,43.59655 -115.5412,19.39232 -41.08192,37.87344 -110.29321,31.77403 -147.41463,6.01831 -52.56002,15.25977 -70.43108,0.60771 -98.27642,-29.42283 -50.76573,3.69875 -64.70991,-7.01291 -78.35555,-49.48386 -21.11,-5.96614 -36.214394,-50.65218 -5.97627,-73.55708 z"
         style="fill:none;fill-opacity:1;fill-rule:evenodd;stroke:#787878;stroke-width:3.48731565;stroke-linecap:butt;stroke-linejoin:miter;stroke-miterlimit:4;stroke-dasharray:none;stroke-opacity:1" />
      <path
         inkscape:transform-center-y="7.1428571"
         inkscape:transform-center-x="-18.571429"
         sodipodi:nodetypes="cccc"
         inkscape:connector-curvature="0"
         id="path4138"
         d="m 434.82285,489.92379 -0.0445,-0.85539 c -38.57997,-56.13321 -90.70467,-37.80294 -110.11633,-15.65481 21.34756,-6.35623 77.62176,-14.93345 110.16085,16.51021 z"
         style="color:#000000;font-style:normal;font-variant:normal;font-weight:normal;font-stretch:normal;font-size:medium;line-height:normal;font-family:sans-serif;text-indent:0;text-align:start;text-decoration:none;text-decoration-line:none;text-decoration-style:solid;text-decoration-color:#000000;letter-spacing:normal;word-spacing:normal;text-transform:none;direction:ltr;block-progression:tb;writing-mode:lr-tb;baseline-shift:baseline;text-anchor:start;white-space:normal;clip-rule:nonzero;display:inline;overflow:visible;visibility:visible;opacity:1;isolation:auto;mix-blend-mode:normal;color-interpolation:sRGB;color-interpolation-filters:linearRGB;solid-color:#000000;solid-opacity:1;fill:#bfbfbf;fill-opacity:1;fill-rule:evenodd;stroke:none;stroke-width:1px;stroke-linecap:butt;stroke-linejoin:miter;stroke-miterlimit:4;stroke-dasharray:none;stroke-dashoffset:0;stroke-opacity:1;color-rendering:auto;image-rendering:auto;shape-rendering:auto;text-rendering:auto;enable-background:accumulate" />
      <path
         sodipodi:nodetypes="cccc"
         inkscape:connector-curvature="0"
         id="path4138-4"
         d="m 543.38276,507.73363 0.11311,-0.39594 c -13.13821,-30.24317 -46.16569,-28.09755 -60.95095,-20.30124 13.33964,-0.35314 47.17747,2.45093 60.83784,20.69718 z"
         style="color:#000000;font-style:normal;font-variant:normal;font-weight:normal;font-stretch:normal;font-size:medium;line-height:normal;font-family:sans-serif;text-indent:0;text-align:start;text-decoration:none;text-decoration-line:none;text-decoration-style:solid;text-decoration-color:#000000;letter-spacing:normal;word-spacing:normal;text-transform:none;direction:ltr;block-progression:tb;writing-mode:lr-tb;baseline-shift:baseline;text-anchor:start;white-space:normal;clip-rule:nonzero;display:inline;overflow:visible;visibility:visible;opacity:1;isolation:auto;mix-blend-mode:normal;color-interpolation:sRGB;color-interpolation-filters:linearRGB;solid-color:#000000;solid-opacity:1;fill:#bfbfbf;fill-opacity:1;fill-rule:evenodd;stroke:none;stroke-width:1px;stroke-linecap:butt;stroke-linejoin:miter;stroke-miterlimit:4;stroke-dasharray:none;stroke-dashoffset:0;stroke-opacity:1;color-rendering:auto;image-rendering:auto;shape-rendering:auto;text-rendering:auto;enable-background:accumulate" />
      <path
         sodipodi:nodetypes="cccc"
         inkscape:connector-curvature="0"
         id="path4138-0"
         d="m 273.08125,484.46233 -0.25365,-0.88414 c -52.75763,-40.27142 -101.06549,5.09301 -115.31815,38.2206 20.06512,-17.35954 74.95375,-54.45584 115.57182,-37.33645 z"
         style="color:#000000;font-style:normal;font-variant:normal;font-weight:normal;font-stretch:normal;font-size:medium;line-height:normal;font-family:sans-serif;text-indent:0;text-align:start;text-decoration:none;text-decoration-line:none;text-decoration-style:solid;text-decoration-color:#000000;letter-spacing:normal;word-spacing:normal;text-transform:none;direction:ltr;block-progression:tb;writing-mode:lr-tb;baseline-shift:baseline;text-anchor:start;white-space:normal;clip-rule:nonzero;display:inline;overflow:visible;visibility:visible;opacity:1;isolation:auto;mix-blend-mode:normal;color-interpolation:sRGB;color-interpolation-filters:linearRGB;solid-color:#000000;solid-opacity:1;fill:#bfbfbf;fill-opacity:1;fill-rule:evenodd;stroke:none;stroke-width:1px;stroke-linecap:butt;stroke-linejoin:miter;stroke-miterlimit:4;stroke-dasharray:none;stroke-dashoffset:0;stroke-opacity:1;color-rendering:auto;image-rendering:auto;shape-rendering:auto;text-rendering:auto;enable-background:accumulate" />
    </g>
  </g>
</svg>
